solid surface
facet normal -0.733433 0.183856 0.654425
    outer loop
        vertex 0.0341801 0.0484483 0.0634605
        vertex 0.0398796 0.051615 0.0689585
        vertex 0.0376587 0.0607305 0.0639084
    endloop
endfacet
facet normal -0.0566399 0.526619 -0.848212
    outer loop
        vertex 0.0527705 0.0560334 0.0288289
        vertex 0.0451631 0.0589072 0.0311211
        vertex 0.0478974 0.0617466 0.0327014
    endloop
endfacet
facet normal -0.589945 0.0476488 -0.806036
    outer loop
        vertex 0.0383602 0.0517903 0.0326895
        vertex 0.0387361 0.0552519 0.032619
        vertex 0.0422116 0.0531163 0.029949
    endloop
endfacet
facet normal -0.365198 0.434799 -0.823153
    outer loop
        vertex 0.0387361 0.0552519 0.032619
        vertex 0.0422419 0.0565072 0.0317266
        vertex 0.0422116 0.0531163 0.029949
    endloop
endfacet
facet normal 0.110234 0.620366 -0.776527
    outer loop
        vertex 0.0527705 0.0560334 0.0288289
        vertex 0.0478974 0.0617466 0.0327014
        vertex 0.0512498 0.0635307 0.0346026
    endloop
endfacet
facet normal 0.43563 -0.410231 0.80121
    outer loop
        vertex 0.0589247 0.0380894 0.0649732
        vertex 0.0609958 0.0455529 0.0676685
        vertex 0.0534699 0.0422656 0.0700774
    endloop
endfacet
facet normal 0.563907 0.786903 0.250587
    outer loop
        vertex 0.0624393 0.0657387 0.0540382
        vertex 0.0579926 0.0684206 0.055623
        vertex 0.0639547 0.0636377 0.0572257
    endloop
endfacet
facet normal 0.487097 0.754549 0.439765
    outer loop
        vertex 0.0579926 0.0684206 0.055623
        vertex 0.0563803 0.0667684 0.0602438
        vertex 0.0639547 0.0636377 0.0572257
    endloop
endfacet
facet normal 0.571022 0.751437 0.33057
    outer loop
        vertex 0.0617925 0.0669244 0.0524603
        vertex 0.0579926 0.0684206 0.055623
        vertex 0.0624393 0.0657387 0.0540382
    endloop
endfacet
facet normal 0.521695 0.818851 0.239411
    outer loop
        vertex 0.0606064 0.0680536 0.0511829
        vertex 0.0579926 0.0684206 0.055623
        vertex 0.0617925 0.0669244 0.0524603
    endloop
endfacet
facet normal 0.389954 0.8155 0.427663
    outer loop
        vertex 0.0579926 0.0684206 0.055623
        vertex 0.0541608 0.0714996 0.0532459
        vertex 0.0563803 0.0667684 0.0602438
    endloop
endfacet
facet normal 0.151664 0.840503 0.520148
    outer loop
        vertex 0.0563803 0.0667684 0.0602438
        vertex 0.0541608 0.0714996 0.0532459
        vertex 0.0469174 0.0686197 0.0600113
    endloop
endfacet
facet normal -0.113132 0.952084 0.284144
    outer loop
        vertex 0.0469174 0.0686197 0.0600113
        vertex 0.0541608 0.0714996 0.0532459
        vertex 0.04762 0.0718689 0.0494041
    endloop
endfacet
facet normal 0.152811 0.974126 -0.166517
    outer loop
        vertex 0.0541608 0.0714996 0.0532459
        vertex 0.0579689 0.0697159 0.0463062
        vertex 0.04762 0.0718689 0.0494041
    endloop
endfacet
facet normal 0.135025 0.966039 -0.220312
    outer loop
        vertex 0.0579689 0.0697159 0.0463062
        vertex 0.0545847 0.0691265 0.0416478
        vertex 0.04762 0.0718689 0.0494041
    endloop
endfacet
facet normal 0.665897 0.740371 0.0918313
    outer loop
        vertex 0.0639882 0.0651939 0.0500975
        vertex 0.0620874 0.0671914 0.0477762
        vertex 0.0612604 0.0675893 0.050566
    endloop
endfacet
facet normal 0.801664 0.12776 -0.583963
    outer loop
        vertex 0.070726 0.0518614 0.0445562
        vertex 0.0643347 0.0472923 0.0347827
        vertex 0.0680948 0.0568121 0.0420272
    endloop
endfacet
facet normal 0.859404 -0.258408 -0.441191
    outer loop
        vertex 0.0672277 0.0400935 0.0446343
        vertex 0.0643347 0.0472923 0.0347827
        vertex 0.070726 0.0518614 0.0445562
    endloop
endfacet
facet normal 0.494237 0.535875 0.68452
    outer loop
        vertex 0.0592926 0.0535315 0.0685035
        vertex 0.0639547 0.0636377 0.0572257
        vertex 0.0563803 0.0667684 0.0602438
    endloop
endfacet
facet normal 0.500709 -0.71874 -0.482393
    outer loop
        vertex 0.0588569 0.0310824 0.045615
        vertex 0.0574712 0.0373246 0.0348762
        vertex 0.0641099 0.0401261 0.0375929
    endloop
endfacet
facet normal 0.681067 -0.665835 -0.304648
    outer loop
        vertex 0.0641099 0.0401261 0.0375929
        vertex 0.0672277 0.0400935 0.0446343
        vertex 0.0588569 0.0310824 0.045615
    endloop
endfacet
facet normal -0.760746 -0.161296 -0.628688
    outer loop
        vertex 0.0349959 0.053979 0.0361989
        vertex 0.0383602 0.0517903 0.0326895
        vertex 0.0341805 0.0413381 0.0404286
    endloop
endfacet
facet normal 0.794365 0.531029 -0.294945
    outer loop
        vertex 0.0633938 0.064103 0.0424931
        vertex 0.0665573 0.062903 0.0488525
        vertex 0.0680948 0.0568121 0.0420272
    endloop
endfacet
facet normal 0.667409 0.726895 0.161828
    outer loop
        vertex 0.0639547 0.0636377 0.0572257
        vertex 0.0639882 0.0651939 0.0500975
        vertex 0.0624393 0.0657387 0.0540382
    endloop
endfacet
facet normal 0.698407 0.698541 0.155783
    outer loop
        vertex 0.0639547 0.0636377 0.0572257
        vertex 0.0665573 0.062903 0.0488525
        vertex 0.0639882 0.0651939 0.0500975
    endloop
endfacet
facet normal -0.0170877 0.786859 -0.616896
    outer loop
        vertex 0.0545847 0.0691265 0.0416478
        vertex 0.0512498 0.0635307 0.0346026
        vertex 0.0452172 0.0661175 0.0380692
    endloop
endfacet
facet normal 0.632987 0.76861 0.0925523
    outer loop
        vertex 0.0612604 0.0675893 0.050566
        vertex 0.0603391 0.068443 0.0497767
        vertex 0.0606064 0.0680536 0.0511829
    endloop
endfacet
facet normal -0.600044 0.782932 -0.164208
    outer loop
        vertex 0.0436923 0.0695329 0.044481
        vertex 0.037048 0.0633395 0.0392308
        vertex 0.0391385 0.0679258 0.0534591
    endloop
endfacet
facet normal -0.341455 0.793437 -0.503852
    outer loop
        vertex 0.0452172 0.0661175 0.0380692
        vertex 0.037048 0.0633395 0.0392308
        vertex 0.0436923 0.0695329 0.044481
    endloop
endfacet
facet normal -0.324956 0.681359 -0.655861
    outer loop
        vertex 0.0441936 0.0597897 0.0320026
        vertex 0.037048 0.0633395 0.0392308
        vertex 0.0452172 0.0661175 0.0380692
    endloop
endfacet
facet normal -0.236992 0.692042 -0.681845
    outer loop
        vertex 0.0441936 0.0597897 0.0320026
        vertex 0.0452172 0.0661175 0.0380692
        vertex 0.0478974 0.0617466 0.0327014
    endloop
endfacet
facet normal -0.0419317 0.764403 -0.643373
    outer loop
        vertex 0.0478974 0.0617466 0.0327014
        vertex 0.0452172 0.0661175 0.0380692
        vertex 0.0512498 0.0635307 0.0346026
    endloop
endfacet
facet normal 0.45841 0.715053 -0.527787
    outer loop
        vertex 0.0633938 0.064103 0.0424931
        vertex 0.0545847 0.0691265 0.0416478
        vertex 0.061361 0.0672055 0.0449308
    endloop
endfacet
facet normal -0.701014 0.0616563 -0.710477
    outer loop
        vertex 0.0349959 0.053979 0.0361989
        vertex 0.0387361 0.0552519 0.032619
        vertex 0.0383602 0.0517903 0.0326895
    endloop
endfacet
facet normal 0.128233 0.738536 0.661908
    outer loop
        vertex 0.0469174 0.0686197 0.0600113
        vertex 0.0501019 0.0607915 0.0681289
        vertex 0.0563803 0.0667684 0.0602438
    endloop
endfacet
facet normal -0.247763 0.646988 0.721124
    outer loop
        vertex 0.0376587 0.0607305 0.0639084
        vertex 0.0501019 0.0607915 0.0681289
        vertex 0.0469174 0.0686197 0.0600113
    endloop
endfacet
facet normal -0.226884 -0.848716 -0.477708
    outer loop
        vertex 0.0422079 0.0313594 0.044215
        vertex 0.0497659 0.0326451 0.0383413
        vertex 0.0503825 0.0281218 0.0460848
    endloop
endfacet
facet normal 0.260225 -0.824557 -0.502383
    outer loop
        vertex 0.0497659 0.0326451 0.0383413
        vertex 0.0588569 0.0310824 0.045615
        vertex 0.0503825 0.0281218 0.0460848
    endloop
endfacet
facet normal 0.691931 0.243837 -0.67954
    outer loop
        vertex 0.0643347 0.0472923 0.0347827
        vertex 0.0586968 0.0597978 0.0335292
        vertex 0.0680948 0.0568121 0.0420272
    endloop
endfacet
facet normal 0.487419 0.869602 -0.0788387
    outer loop
        vertex 0.0596233 0.0689967 0.0486012
        vertex 0.0579689 0.0697159 0.0463062
        vertex 0.0575511 0.0704337 0.0516403
    endloop
endfacet
facet normal 0.401963 0.546757 0.734495
    outer loop
        vertex 0.0501019 0.0607915 0.0681289
        vertex 0.0592926 0.0535315 0.0685035
        vertex 0.0563803 0.0667684 0.0602438
    endloop
endfacet
facet normal 0.691736 0.371767 0.619105
    outer loop
        vertex 0.0685537 0.0569425 0.0561077
        vertex 0.0639547 0.0636377 0.0572257
        vertex 0.0592926 0.0535315 0.0685035
    endloop
endfacet
facet normal 0.965127 0.15651 -0.209845
    outer loop
        vertex 0.070726 0.0518614 0.0445562
        vertex 0.0706536 0.0569463 0.0480157
        vertex 0.0712454 0.0553832 0.0495718
    endloop
endfacet
facet normal 0.882352 0.273232 -0.383143
    outer loop
        vertex 0.0680948 0.0568121 0.0420272
        vertex 0.0706536 0.0569463 0.0480157
        vertex 0.070726 0.0518614 0.0445562
    endloop
endfacet
facet normal 0.448462 0.69103 -0.566886
    outer loop
        vertex 0.0633938 0.064103 0.0424931
        vertex 0.0586968 0.0597978 0.0335292
        vertex 0.0545847 0.0691265 0.0416478
    endloop
endfacet
facet normal 0.252046 0.696123 -0.672224
    outer loop
        vertex 0.0545847 0.0691265 0.0416478
        vertex 0.0586968 0.0597978 0.0335292
        vertex 0.0512498 0.0635307 0.0346026
    endloop
endfacet
facet normal 0.669751 0.468641 -0.576029
    outer loop
        vertex 0.0680948 0.0568121 0.0420272
        vertex 0.0586968 0.0597978 0.0335292
        vertex 0.0633938 0.064103 0.0424931
    endloop
endfacet
facet normal 0.594519 0.80391 0.0166196
    outer loop
        vertex 0.0620874 0.0671914 0.0477762
        vertex 0.0596233 0.0689967 0.0486012
        vertex 0.0603391 0.068443 0.0497767
    endloop
endfacet
facet normal 0.554971 0.820408 -0.137615
    outer loop
        vertex 0.061361 0.0672055 0.0449308
        vertex 0.0596233 0.0689967 0.0486012
        vertex 0.0620874 0.0671914 0.0477762
    endloop
endfacet
facet normal -0.706808 0.353439 -0.612784
    outer loop
        vertex 0.037048 0.0633395 0.0392308
        vertex 0.0387361 0.0552519 0.032619
        vertex 0.0349959 0.053979 0.0361989
    endloop
endfacet
facet normal 0.203388 0.622956 -0.755354
    outer loop
        vertex 0.0586968 0.0597978 0.0335292
        vertex 0.0527705 0.0560334 0.0288289
        vertex 0.0512498 0.0635307 0.0346026
    endloop
endfacet
facet normal 0.620667 0.777989 0.0974914
    outer loop
        vertex 0.0606064 0.0680536 0.0511829
        vertex 0.0603391 0.068443 0.0497767
        vertex 0.0575511 0.0704337 0.0516403
    endloop
endfacet
facet normal 0.590127 0.807043 0.0207704
    outer loop
        vertex 0.0603391 0.068443 0.0497767
        vertex 0.0596233 0.0689967 0.0486012
        vertex 0.0575511 0.0704337 0.0516403
    endloop
endfacet
facet normal -0.0938141 0.869272 -0.485351
    outer loop
        vertex 0.0545847 0.0691265 0.0416478
        vertex 0.0452172 0.0661175 0.0380692
        vertex 0.0436923 0.0695329 0.044481
    endloop
endfacet
facet normal 0.731883 0.659994 0.169571
    outer loop
        vertex 0.0639547 0.0636377 0.0572257
        vertex 0.0694881 0.0588359 0.0520326
        vertex 0.0665573 0.062903 0.0488525
    endloop
endfacet
facet normal 0.785351 0.472708 0.399715
    outer loop
        vertex 0.0685537 0.0569425 0.0561077
        vertex 0.0694881 0.0588359 0.0520326
        vertex 0.0639547 0.0636377 0.0572257
    endloop
endfacet
facet normal 0.639505 0.764555 0.0805583
    outer loop
        vertex 0.0620874 0.0671914 0.0477762
        vertex 0.0603391 0.068443 0.0497767
        vertex 0.0612604 0.0675893 0.050566
    endloop
endfacet
facet normal 0.613698 0.729947 0.30092
    outer loop
        vertex 0.0606064 0.0680536 0.0511829
        vertex 0.0575511 0.0704337 0.0516403
        vertex 0.0579926 0.0684206 0.055623
    endloop
endfacet
facet normal -0.400043 0.367635 0.83953
    outer loop
        vertex 0.0398796 0.051615 0.0689585
        vertex 0.0475628 0.0543976 0.071401
        vertex 0.0376587 0.0607305 0.0639084
    endloop
endfacet
facet normal -0.276171 0.522494 0.806678
    outer loop
        vertex 0.0376587 0.0607305 0.0639084
        vertex 0.0475628 0.0543976 0.071401
        vertex 0.0501019 0.0607915 0.0681289
    endloop
endfacet
facet normal -0.446749 0.892154 -0.0669053
    outer loop
        vertex 0.0436923 0.0695329 0.044481
        vertex 0.0391385 0.0679258 0.0534591
        vertex 0.04762 0.0718689 0.0494041
    endloop
endfacet
facet normal -0.301586 0.91704 0.260928
    outer loop
        vertex 0.04762 0.0718689 0.0494041
        vertex 0.0391385 0.0679258 0.0534591
        vertex 0.0469174 0.0686197 0.0600113
    endloop
endfacet
facet normal -0.327358 0.270736 -0.905284
    outer loop
        vertex 0.0422419 0.0565072 0.0317266
        vertex 0.0387361 0.0552519 0.032619
        vertex 0.0441936 0.0597897 0.0320026
    endloop
endfacet
facet normal -0.488247 0.489018 -0.722825
    outer loop
        vertex 0.0441936 0.0597897 0.0320026
        vertex 0.0387361 0.0552519 0.032619
        vertex 0.037048 0.0633395 0.0392308
    endloop
endfacet
facet normal -0.168109 0.598025 -0.783649
    outer loop
        vertex 0.0478974 0.0617466 0.0327014
        vertex 0.0451631 0.0589072 0.0311211
        vertex 0.0441936 0.0597897 0.0320026
    endloop
endfacet
facet normal -0.447712 0.335856 -0.828706
    outer loop
        vertex 0.0451631 0.0589072 0.0311211
        vertex 0.0422419 0.0565072 0.0317266
        vertex 0.0441936 0.0597897 0.0320026
    endloop
endfacet
facet normal 0.682148 0.728053 0.0679232
    outer loop
        vertex 0.0665573 0.062903 0.0488525
        vertex 0.0620874 0.0671914 0.0477762
        vertex 0.0639882 0.0651939 0.0500975
    endloop
endfacet
facet normal 0.702351 0.676414 -0.221738
    outer loop
        vertex 0.0633938 0.064103 0.0424931
        vertex 0.0620874 0.0671914 0.0477762
        vertex 0.0665573 0.062903 0.0488525
    endloop
endfacet
facet normal 0.747483 0.637221 -0.187667
    outer loop
        vertex 0.0633938 0.064103 0.0424931
        vertex 0.061361 0.0672055 0.0449308
        vertex 0.0620874 0.0671914 0.0477762
    endloop
endfacet
facet normal -0.116429 0.040396 -0.992377
    outer loop
        vertex 0.0527705 0.0560334 0.0288289
        vertex 0.0519747 0.0460308 0.0285151
        vertex 0.0422116 0.0531163 0.029949
    endloop
endfacet
facet normal 0.452901 -0.00806192 -0.891524
    outer loop
        vertex 0.0643347 0.0472923 0.0347827
        vertex 0.0519747 0.0460308 0.0285151
        vertex 0.0527705 0.0560334 0.0288289
    endloop
endfacet
facet normal 0.546821 0.16424 -0.820982
    outer loop
        vertex 0.0527705 0.0560334 0.0288289
        vertex 0.0586968 0.0597978 0.0335292
        vertex 0.0643347 0.0472923 0.0347827
    endloop
endfacet
facet normal -0.211913 -0.095167 -0.972644
    outer loop
        vertex 0.0519747 0.0460308 0.0285151
        vertex 0.0421812 0.0456413 0.030687
        vertex 0.0422116 0.0531163 0.029949
    endloop
endfacet
facet normal -0.185273 -0.384405 -0.904382
    outer loop
        vertex 0.0519747 0.0460308 0.0285151
        vertex 0.0457462 0.0393254 0.0326412
        vertex 0.0421812 0.0456413 0.030687
    endloop
endfacet
facet normal 0.384774 -0.224937 0.895183
    outer loop
        vertex 0.0609958 0.0455529 0.0676685
        vertex 0.0535574 0.0497246 0.071914
        vertex 0.0534699 0.0422656 0.0700774
    endloop
endfacet
facet normal 0.502748 0.0168774 0.864268
    outer loop
        vertex 0.0592926 0.0535315 0.0685035
        vertex 0.0535574 0.0497246 0.071914
        vertex 0.0609958 0.0455529 0.0676685
    endloop
endfacet
facet normal -0.625136 -0.703917 0.337202
    outer loop
        vertex 0.0425652 0.0333991 0.061437
        vertex 0.03633 0.0397057 0.0630427
        vertex 0.0339326 0.0367752 0.0524807
    endloop
endfacet
facet normal 0.0608857 -0.563509 -0.823863
    outer loop
        vertex 0.0574712 0.0373246 0.0348762
        vertex 0.0457462 0.0393254 0.0326412
        vertex 0.0519747 0.0460308 0.0285151
    endloop
endfacet
facet normal 0.454217 -0.320566 -0.831219
    outer loop
        vertex 0.0519747 0.0460308 0.0285151
        vertex 0.0643347 0.0472923 0.0347827
        vertex 0.0574712 0.0373246 0.0348762
    endloop
endfacet
facet normal 0.71664 0.315212 0.622148
    outer loop
        vertex 0.0592926 0.0535315 0.0685035
        vertex 0.0668425 0.0481461 0.0625355
        vertex 0.0685537 0.0569425 0.0561077
    endloop
endfacet
facet normal 0.914662 0.106922 0.389823
    outer loop
        vertex 0.0668425 0.0481461 0.0625355
        vertex 0.0712999 0.0453416 0.052846
        vertex 0.0685537 0.0569425 0.0561077
    endloop
endfacet
facet normal 0.0614138 -0.239317 0.968997
    outer loop
        vertex 0.0534699 0.0422656 0.0700774
        vertex 0.0535574 0.0497246 0.071914
        vertex 0.0464303 0.0468686 0.0716603
    endloop
endfacet
facet normal 0.0526118 -0.711676 0.700535
    outer loop
        vertex 0.0425652 0.0333991 0.061437
        vertex 0.0538654 0.029681 0.0568111
        vertex 0.0589247 0.0380894 0.0649732
    endloop
endfacet
facet normal -0.129851 -0.903319 0.408845
    outer loop
        vertex 0.044329 0.0293902 0.0531397
        vertex 0.0538654 0.029681 0.0568111
        vertex 0.0425652 0.0333991 0.061437
    endloop
endfacet
facet normal -0.80287 0.207 0.559063
    outer loop
        vertex 0.0341801 0.0484483 0.0634605
        vertex 0.0376587 0.0607305 0.0639084
        vertex 0.0294758 0.0567814 0.0536191
    endloop
endfacet
facet normal -0.711595 0.62169 0.327314
    outer loop
        vertex 0.0294758 0.0567814 0.0536191
        vertex 0.0376587 0.0607305 0.0639084
        vertex 0.0391385 0.0679258 0.0534591
    endloop
endfacet
facet normal -0.808334 -0.224781 0.544123
    outer loop
        vertex 0.0341801 0.0484483 0.0634605
        vertex 0.0310824 0.043689 0.0568924
        vertex 0.03633 0.0397057 0.0630427
    endloop
endfacet
facet normal -0.783182 -0.530175 0.32487
    outer loop
        vertex 0.03633 0.0397057 0.0630427
        vertex 0.0310824 0.043689 0.0568924
        vertex 0.0339326 0.0367752 0.0524807
    endloop
endfacet
facet normal -0.801363 -0.553784 -0.226144
    outer loop
        vertex 0.0341805 0.0413381 0.0404286
        vertex 0.0339326 0.0367752 0.0524807
        vertex 0.0283448 0.0462568 0.0490631
    endloop
endfacet
facet normal -0.874537 -0.459494 0.155083
    outer loop
        vertex 0.0283448 0.0462568 0.0490631
        vertex 0.0339326 0.0367752 0.0524807
        vertex 0.0310824 0.043689 0.0568924
    endloop
endfacet
facet normal 0.511423 -0.850693 0.121522
    outer loop
        vertex 0.0538654 0.029681 0.0568111
        vertex 0.0588569 0.0310824 0.045615
        vertex 0.0648182 0.0360375 0.055214
    endloop
endfacet
facet normal -0.976514 -0.0938057 -0.19396
    outer loop
        vertex 0.0280723 0.0535227 0.0469209
        vertex 0.0294252 0.0483492 0.042612
        vertex 0.0283448 0.0462568 0.0490631
    endloop
endfacet
facet normal -0.884563 0.139409 -0.4451
    outer loop
        vertex 0.0315688 0.0544338 0.0402575
        vertex 0.0294252 0.0483492 0.042612
        vertex 0.0280723 0.0535227 0.0469209
    endloop
endfacet
facet normal -0.752518 0.651044 -0.0992924
    outer loop
        vertex 0.037048 0.0633395 0.0392308
        vertex 0.0294758 0.0567814 0.0536191
        vertex 0.0391385 0.0679258 0.0534591
    endloop
endfacet
facet normal 0.723972 -0.441514 0.530029
    outer loop
        vertex 0.0589247 0.0380894 0.0649732
        vertex 0.0648182 0.0360375 0.055214
        vertex 0.0668425 0.0481461 0.0625355
    endloop
endfacet
facet normal 0.773549 -0.417568 0.476716
    outer loop
        vertex 0.0648182 0.0360375 0.055214
        vertex 0.0712999 0.0453416 0.052846
        vertex 0.0668425 0.0481461 0.0625355
    endloop
endfacet
facet normal 0.815733 -0.577335 -0.0355509
    outer loop
        vertex 0.0672277 0.0400935 0.0446343
        vertex 0.0712999 0.0453416 0.052846
        vertex 0.0648182 0.0360375 0.055214
    endloop
endfacet
facet normal -0.344821 -0.720675 -0.601436
    outer loop
        vertex 0.0457462 0.0393254 0.0326412
        vertex 0.0497659 0.0326451 0.0383413
        vertex 0.0422079 0.0313594 0.044215
    endloop
endfacet
facet normal 0.0387038 -0.635028 -0.771519
    outer loop
        vertex 0.0497659 0.0326451 0.0383413
        vertex 0.0457462 0.0393254 0.0326412
        vertex 0.0574712 0.0373246 0.0348762
    endloop
endfacet
facet normal 0.267339 -0.817699 -0.509802
    outer loop
        vertex 0.0497659 0.0326451 0.0383413
        vertex 0.0574712 0.0373246 0.0348762
        vertex 0.0588569 0.0310824 0.045615
    endloop
endfacet
facet normal 0.723914 -0.683038 -0.0969864
    outer loop
        vertex 0.0588569 0.0310824 0.045615
        vertex 0.0672277 0.0400935 0.0446343
        vertex 0.0648182 0.0360375 0.055214
    endloop
endfacet
facet normal 0.495696 -0.739833 0.454899
    outer loop
        vertex 0.0538654 0.029681 0.0568111
        vertex 0.0648182 0.0360375 0.055214
        vertex 0.0589247 0.0380894 0.0649732
    endloop
endfacet
facet normal -0.340582 -0.931911 -0.124679
    outer loop
        vertex 0.0503825 0.0281218 0.0460848
        vertex 0.044329 0.0293902 0.0531397
        vertex 0.0422079 0.0313594 0.044215
    endloop
endfacet
facet normal -0.028755 -0.987817 0.152937
    outer loop
        vertex 0.0503825 0.0281218 0.0460848
        vertex 0.0538654 0.029681 0.0568111
        vertex 0.044329 0.0293902 0.0531397
    endloop
endfacet
facet normal 0.331137 -0.943119 0.0295786
    outer loop
        vertex 0.0588569 0.0310824 0.045615
        vertex 0.0538654 0.029681 0.0568111
        vertex 0.0503825 0.0281218 0.0460848
    endloop
endfacet
facet normal -0.570568 -0.780405 0.255773
    outer loop
        vertex 0.0339326 0.0367752 0.0524807
        vertex 0.044329 0.0293902 0.0531397
        vertex 0.0425652 0.0333991 0.061437
    endloop
endfacet
facet normal -0.576765 -0.815782 -0.0429248
    outer loop
        vertex 0.0422079 0.0313594 0.044215
        vertex 0.044329 0.0293902 0.0531397
        vertex 0.0339326 0.0367752 0.0524807
    endloop
endfacet
facet normal -0.70474 -0.21807 -0.675119
    outer loop
        vertex 0.0341805 0.0413381 0.0404286
        vertex 0.0383602 0.0517903 0.0326895
        vertex 0.0421812 0.0456413 0.030687
    endloop
endfacet
facet normal -0.539408 -0.511442 -0.668929
    outer loop
        vertex 0.0421812 0.0456413 0.030687
        vertex 0.0457462 0.0393254 0.0326412
        vertex 0.0341805 0.0413381 0.0404286
    endloop
endfacet
facet normal 0.551705 0.8222 -0.140035
    outer loop
        vertex 0.061361 0.0672055 0.0449308
        vertex 0.0579689 0.0697159 0.0463062
        vertex 0.0596233 0.0689967 0.0486012
    endloop
endfacet
facet normal 0.427861 0.804189 -0.412572
    outer loop
        vertex 0.061361 0.0672055 0.0449308
        vertex 0.0545847 0.0691265 0.0416478
        vertex 0.0579689 0.0697159 0.0463062
    endloop
endfacet
facet normal 0.916766 0.237982 0.320788
    outer loop
        vertex 0.0685537 0.0569425 0.0561077
        vertex 0.0712454 0.0553832 0.0495718
        vertex 0.0694881 0.0588359 0.0520326
    endloop
endfacet
facet normal 0.908162 0.412843 0.0692939
    outer loop
        vertex 0.0712454 0.0553832 0.0495718
        vertex 0.0706536 0.0569463 0.0480157
        vertex 0.0694881 0.0588359 0.0520326
    endloop
endfacet
facet normal 0.753814 0.565416 -0.334767
    outer loop
        vertex 0.0665573 0.062903 0.0488525
        vertex 0.0706536 0.0569463 0.0480157
        vertex 0.0680948 0.0568121 0.0420272
    endloop
endfacet
facet normal 0.821688 0.569182 -0.0293398
    outer loop
        vertex 0.0665573 0.062903 0.0488525
        vertex 0.0694881 0.0588359 0.0520326
        vertex 0.0706536 0.0569463 0.0480157
    endloop
endfacet
facet normal -0.177791 0.281481 -0.942952
    outer loop
        vertex 0.0422116 0.0531163 0.029949
        vertex 0.0451631 0.0589072 0.0311211
        vertex 0.0527705 0.0560334 0.0288289
    endloop
endfacet
facet normal -0.493818 0.407209 -0.768326
    outer loop
        vertex 